v 0.05079979822039604 -0.00013706200115848333 0.05384799838066101
v 0.05146490037441254 -0.00013885600492358208 0.015747999772429466
v 0.05110640078783035 0.0060655600391328335 0.015747999772429466
v 0.05079979822039604 -0.00013706200115848333 0.05384799838066101
v 0.05110640078783035 0.0060655600391328335 0.015747999772429466
v 0.05044599995017052 0.005987179931253195 0.05384799838066101
v 0.05044599995017052 0.005987179931253195 0.05384799838066101
v 0.05110640078783035 0.0060655600391328335 0.015747999772429466
v 0.050002600997686386 0.012181499972939491 0.015747999772429466
v 0.05044599995017052 0.005987179931253195 0.05384799838066101
v 0.050002600997686386 0.012181499972939491 0.015747999772429466
v 0.049356501549482346 0.012024099938571453 0.05384799838066101
v 0.049356501549482346 0.012024099938571453 0.05384799838066101
v 0.050002600997686386 0.012181499972939491 0.015747999772429466
v 0.04816969856619835 0.018119899556040764 0.015747999772429466
v 0.049356501549482346 0.012024099938571453 0.05384799838066101
v 0.04816969856619835 0.018119899556040764 0.015747999772429466
v 0.04754729941487312 0.01788569986820221 0.05384799838066101
v 0.04754729941487312 0.01788569986820221 0.05384799838066101
v 0.04816969856619835 0.018119899556040764 0.015747999772429466
v 0.045634400099515915 0.02379399910569191 0.015747999772429466
v 0.04754729941487312 0.01788569986820221 0.05384799838066101
v 0.045634400099515915 0.02379399910569191 0.015747999772429466
v 0.04504470154643059 0.02348650060594082 0.05384799838066101
v 0.04504470154643059 0.02348650060594082 0.05384799838066101
v 0.045634400099515915 0.02379399910569191 0.015747999772429466
v 0.04243360087275505 0.029121100902557373 0.015747999772429466
v 0.04504470154643059 0.02348650060594082 0.05384799838066101
v 0.04243360087275505 0.029121100902557373 0.015747999772429466
v 0.04188530147075653 0.02874480001628399 0.05384799838066101
v 0.04188530147075653 0.02874480001628399 0.05384799838066101
v 0.04243360087275505 0.029121100902557373 0.015747999772429466
v 0.03861410170793533 0.034023601561784744 0.015747999772429466
v 0.04188530147075653 0.02874480001628399 0.05384799838066101
v 0.03861410170793533 0.034023601561784744 0.015747999772429466
v 0.03811509907245636 0.033583901822566986 0.05384799838066101
v 0.03811509907245636 0.033583901822566986 0.05384799838066101
v 0.03861410170793533 0.034023601561784744 0.015747999772429466
v 0.03423139825463295 0.038429901003837585 0.015747999772429466
v 0.03811509907245636 0.033583901822566986 0.05384799838066101
v 0.03423139825463295 0.038429901003837585 0.015747999772429466
v 0.033789098262786865 0.03793330118060112 0.05384799838066101
v 0.033789098262786865 0.03793330118060112 0.05384799838066101
v 0.03423139825463295 0.038429901003837585 0.015747999772429466
v 0.02934960089623928 0.04227589815855026 0.015747999772429466
v 0.033789098262786865 0.03793330118060112 0.05384799838066101
v 0.02934960089623928 0.04227589815855026 0.015747999772429466
v 0.028970399871468544 0.04172959923744202 0.05384799838066101
v 0.028970399871468544 0.04172959923744202 0.05384799838066101
v 0.02934960089623928 0.04227589815855026 0.015747999772429466
v 0.024039899930357933 0.04550530016422272 0.015747999772429466
v 0.028970399871468544 0.04172959923744202 0.05384799838066101
v 0.024039899930357933 0.04550530016422272 0.015747999772429466
v 0.023729199543595314 0.04491730034351349 0.05384799838066101
v 0.023729199543595314 0.04491730034351349 0.05384799838066101
v 0.024039899930357933 0.04550530016422272 0.015747999772429466
v 0.01837950013577938 0.04807119816541672 0.015747999772429466
v 0.023729199543595314 0.04491730034351349 0.05384799838066101
v 0.01837950013577938 0.04807119816541672 0.015747999772429466
v 0.01814199984073639 0.047450099140405655 0.05384799838066101
v 0.01814199984073639 0.047450099140405655 0.05384799838066101
v 0.01837950013577938 0.04807119816541672 0.015747999772429466
v 0.012451199814677238 0.04993610084056854 0.015747999772429466
v 0.01814199984073639 0.047450099140405655 0.05384799838066101
v 0.012451199814677238 0.04993610084056854 0.015747999772429466
v 0.012290299870073795 0.04929089918732643 0.05384799838066101
v 0.012290299870073795 0.04929089918732643 0.05384799838066101
v 0.012451199814677238 0.04993610084056854 0.015747999772429466
v 0.006341250147670507 0.051072899252176285 0.015747999772429466
v 0.012290299870073795 0.04929089918732643 0.05384799838066101
v 0.006341250147670507 0.051072899252176285 0.015747999772429466
v 0.00625929981470108 0.05041290074586868 0.05384799838066101
v 0.00625929981470108 0.05041290074586868 0.05384799838066101
v 0.006341250147670507 0.051072899252176285 0.015747999772429466
v 0.00013885600492358208 0.05146490037441254 0.015747999772429466
v 0.00625929981470108 0.05041290074586868 0.05384799838066101
v 0.00013885600492358208 0.05146490037441254 0.015747999772429466
v 0.00013706200115848333 0.05079979822039604 0.05384799838066101
v 0.00013706200115848333 0.05079979822039604 0.05384799838066101
v 0.00013885600492358208 0.05146490037441254 0.015747999772429466
v -0.0060655600391328335 0.05110640078783035 0.015747999772429466
v 0.00013706200115848333 0.05079979822039604 0.05384799838066101
v -0.0060655600391328335 0.05110640078783035 0.015747999772429466
v -0.005987179931253195 0.05044599995017052 0.05384799838066101
v -0.005987179931253195 0.05044599995017052 0.05384799838066101
v -0.0060655600391328335 0.05110640078783035 0.015747999772429466
v -0.012181499972939491 0.050002600997686386 0.015747999772429466
v -0.005987179931253195 0.05044599995017052 0.05384799838066101
v -0.012181499972939491 0.050002600997686386 0.015747999772429466
v -0.012024099938571453 0.049356501549482346 0.05384799838066101
v -0.012024099938571453 0.049356501549482346 0.05384799838066101
v -0.012181499972939491 0.050002600997686386 0.015747999772429466
v -0.018119899556040764 0.04816969856619835 0.015747999772429466
v -0.012024099938571453 0.049356501549482346 0.05384799838066101
v -0.018119899556040764 0.04816969856619835 0.015747999772429466
v -0.01788569986820221 0.04754729941487312 0.05384799838066101
v -0.01788569986820221 0.04754729941487312 0.05384799838066101
v -0.018119899556040764 0.04816969856619835 0.015747999772429466
v -0.02379399910569191 0.045634400099515915 0.015747999772429466
v -0.01788569986820221 0.04754729941487312 0.05384799838066101
v -0.02379399910569191 0.045634400099515915 0.015747999772429466
v -0.02348650060594082 0.04504470154643059 0.05384799838066101
v -0.02348650060594082 0.04504470154643059 0.05384799838066101
v -0.02379399910569191 0.045634400099515915 0.015747999772429466
v -0.029121100902557373 0.04243360087275505 0.015747999772429466
v -0.02348650060594082 0.04504470154643059 0.05384799838066101
v -0.029121100902557373 0.04243360087275505 0.015747999772429466
v -0.02874480001628399 0.04188530147075653 0.05384799838066101
v -0.02874480001628399 0.04188530147075653 0.05384799838066101
v -0.029121100902557373 0.04243360087275505 0.015747999772429466
v -0.034023601561784744 0.03861410170793533 0.015747999772429466
v -0.02874480001628399 0.04188530147075653 0.05384799838066101
v -0.034023601561784744 0.03861410170793533 0.015747999772429466
v -0.033583901822566986 0.03811509907245636 0.05384799838066101
v -0.033583901822566986 0.03811509907245636 0.05384799838066101
v -0.034023601561784744 0.03861410170793533 0.015747999772429466
v -0.038429901003837585 0.03423139825463295 0.015747999772429466
v -0.033583901822566986 0.03811509907245636 0.05384799838066101
v -0.038429901003837585 0.03423139825463295 0.015747999772429466
v -0.03793330118060112 0.033789098262786865 0.05384799838066101
v -0.03793330118060112 0.033789098262786865 0.05384799838066101
v -0.038429901003837585 0.03423139825463295 0.015747999772429466
v -0.04227589815855026 0.02934960089623928 0.015747999772429466
v -0.03793330118060112 0.033789098262786865 0.05384799838066101
v -0.04227589815855026 0.02934960089623928 0.015747999772429466
v -0.04172959923744202 0.028970399871468544 0.05384799838066101
v -0.04172959923744202 0.028970399871468544 0.05384799838066101
v -0.04227589815855026 0.02934960089623928 0.015747999772429466
v -0.04550530016422272 0.024039899930357933 0.015747999772429466
v -0.04172959923744202 0.028970399871468544 0.05384799838066101
v -0.04550530016422272 0.024039899930357933 0.015747999772429466
v -0.04491730034351349 0.023729199543595314 0.05384799838066101
v -0.04491730034351349 0.023729199543595314 0.05384799838066101
v -0.04550530016422272 0.024039899930357933 0.015747999772429466
v -0.04807119816541672 0.01837950013577938 0.015747999772429466
v -0.04491730034351349 0.023729199543595314 0.05384799838066101
v -0.04807119816541672 0.01837950013577938 0.015747999772429466
v -0.047450099140405655 0.01814199984073639 0.05384799838066101
v -0.047450099140405655 0.01814199984073639 0.05384799838066101
v -0.04807119816541672 0.01837950013577938 0.015747999772429466
v -0.04993610084056854 0.012451199814677238 0.015747999772429466
v -0.047450099140405655 0.01814199984073639 0.05384799838066101
v -0.04993610084056854 0.012451199814677238 0.015747999772429466
v -0.04929089918732643 0.012290299870073795 0.05384799838066101
v -0.04929089918732643 0.012290299870073795 0.05384799838066101
v -0.04993610084056854 0.012451199814677238 0.015747999772429466
v -0.051072899252176285 0.006341250147670507 0.015747999772429466
v -0.04929089918732643 0.012290299870073795 0.05384799838066101
v -0.051072899252176285 0.006341250147670507 0.015747999772429466
v -0.05041290074586868 0.00625929981470108 0.05384799838066101
v -0.05041290074586868 0.00625929981470108 0.05384799838066101
v -0.051072899252176285 0.006341250147670507 0.015747999772429466
v -0.05146490037441254 0.00013885600492358208 0.015747999772429466
v -0.05041290074586868 0.00625929981470108 0.05384799838066101
v -0.05146490037441254 0.00013885600492358208 0.015747999772429466
v -0.05079979822039604 0.00013706200115848333 0.05384799838066101
v -0.05079979822039604 0.00013706200115848333 0.05384799838066101
v -0.05146490037441254 0.00013885600492358208 0.015747999772429466
v -0.05110640078783035 -0.0060655600391328335 0.015747999772429466
v -0.05079979822039604 0.00013706200115848333 0.05384799838066101
v -0.05110640078783035 -0.0060655600391328335 0.015747999772429466
v -0.05044599995017052 -0.005987179931253195 0.05384799838066101
v -0.05044599995017052 -0.005987179931253195 0.05384799838066101
v -0.05110640078783035 -0.0060655600391328335 0.015747999772429466
v -0.050002600997686386 -0.012181499972939491 0.015747999772429466
v -0.05044599995017052 -0.005987179931253195 0.05384799838066101
v -0.050002600997686386 -0.012181499972939491 0.015747999772429466
v -0.049356501549482346 -0.012024099938571453 0.05384799838066101
v -0.049356501549482346 -0.012024099938571453 0.05384799838066101
v -0.050002600997686386 -0.012181499972939491 0.015747999772429466
v -0.04816969856619835 -0.018119899556040764 0.015747999772429466
v -0.049356501549482346 -0.012024099938571453 0.05384799838066101
v -0.04816969856619835 -0.018119899556040764 0.015747999772429466
v -0.04754729941487312 -0.01788569986820221 0.05384799838066101
v -0.04754729941487312 -0.01788569986820221 0.05384799838066101
v -0.04816969856619835 -0.018119899556040764 0.015747999772429466
v -0.045634400099515915 -0.02379399910569191 0.015747999772429466
v -0.04754729941487312 -0.01788569986820221 0.05384799838066101
v -0.045634400099515915 -0.02379399910569191 0.015747999772429466
v -0.04504470154643059 -0.02348650060594082 0.05384799838066101
v -0.04504470154643059 -0.02348650060594082 0.05384799838066101
v -0.045634400099515915 -0.02379399910569191 0.015747999772429466
v -0.04243360087275505 -0.029121100902557373 0.015747999772429466
v -0.04504470154643059 -0.02348650060594082 0.05384799838066101
v -0.04243360087275505 -0.029121100902557373 0.015747999772429466
v -0.04188530147075653 -0.02874480001628399 0.05384799838066101
v -0.04188530147075653 -0.02874480001628399 0.05384799838066101
v -0.04243360087275505 -0.029121100902557373 0.015747999772429466
v -0.03861410170793533 -0.034023601561784744 0.015747999772429466
v -0.04188530147075653 -0.02874480001628399 0.05384799838066101
v -0.03861410170793533 -0.034023601561784744 0.015747999772429466
v -0.03811509907245636 -0.033583901822566986 0.05384799838066101
v -0.03811509907245636 -0.033583901822566986 0.05384799838066101
v -0.03861410170793533 -0.034023601561784744 0.015747999772429466
v -0.03423139825463295 -0.038429901003837585 0.015747999772429466
v -0.03811509907245636 -0.033583901822566986 0.05384799838066101
v -0.03423139825463295 -0.038429901003837585 0.015747999772429466
v -0.033789098262786865 -0.03793330118060112 0.05384799838066101
v -0.033789098262786865 -0.03793330118060112 0.05384799838066101
v -0.03423139825463295 -0.038429901003837585 0.015747999772429466
v -0.02934960089623928 -0.04227589815855026 0.015747999772429466
v -0.033789098262786865 -0.03793330118060112 0.05384799838066101
v -0.02934960089623928 -0.04227589815855026 0.015747999772429466
v -0.028970399871468544 -0.04172959923744202 0.05384799838066101
v -0.028970399871468544 -0.04172959923744202 0.05384799838066101
v -0.02934960089623928 -0.04227589815855026 0.015747999772429466
v -0.024039899930357933 -0.04550530016422272 0.015747999772429466
v -0.028970399871468544 -0.04172959923744202 0.05384799838066101
v -0.024039899930357933 -0.04550530016422272 0.015747999772429466
v -0.023729199543595314 -0.04491730034351349 0.05384799838066101
v -0.023729199543595314 -0.04491730034351349 0.05384799838066101
v -0.024039899930357933 -0.04550530016422272 0.015747999772429466
v -0.01837950013577938 -0.04807119816541672 0.015747999772429466
v -0.023729199543595314 -0.04491730034351349 0.05384799838066101
v -0.01837950013577938 -0.04807119816541672 0.015747999772429466
v -0.01814199984073639 -0.047450099140405655 0.05384799838066101
v -0.01814199984073639 -0.047450099140405655 0.05384799838066101
v -0.01837950013577938 -0.04807119816541672 0.015747999772429466
v -0.012451199814677238 -0.04993610084056854 0.015747999772429466
v -0.01814199984073639 -0.047450099140405655 0.05384799838066101
v -0.012451199814677238 -0.04993610084056854 0.015747999772429466
v -0.012290299870073795 -0.04929089918732643 0.05384799838066101
v -0.012290299870073795 -0.04929089918732643 0.05384799838066101
v -0.012451199814677238 -0.04993610084056854 0.015747999772429466
v -0.006341250147670507 -0.051072899252176285 0.015747999772429466
v -0.012290299870073795 -0.04929089918732643 0.05384799838066101
v -0.006341250147670507 -0.051072899252176285 0.015747999772429466
v -0.00625929981470108 -0.05041290074586868 0.05384799838066101
v -0.00625929981470108 -0.05041290074586868 0.05384799838066101
v -0.006341250147670507 -0.051072899252176285 0.015747999772429466
v -0.00013885600492358208 -0.05146490037441254 0.015747999772429466
v -0.00625929981470108 -0.05041290074586868 0.05384799838066101
v -0.00013885600492358208 -0.05146490037441254 0.015747999772429466
v -0.00013706200115848333 -0.05079979822039604 0.05384799838066101
v -0.00013706200115848333 -0.05079979822039604 0.05384799838066101
v -0.00013885600492358208 -0.05146490037441254 0.015747999772429466
v 0.0060655600391328335 -0.05110640078783035 0.015747999772429466
v -0.00013706200115848333 -0.05079979822039604 0.05384799838066101
v 0.0060655600391328335 -0.05110640078783035 0.015747999772429466
v 0.005987179931253195 -0.05044599995017052 0.05384799838066101
v 0.005987179931253195 -0.05044599995017052 0.05384799838066101
v 0.0060655600391328335 -0.05110640078783035 0.015747999772429466
v 0.012181499972939491 -0.050002600997686386 0.015747999772429466
v 0.005987179931253195 -0.05044599995017052 0.05384799838066101
v 0.012181499972939491 -0.050002600997686386 0.015747999772429466
v 0.012024099938571453 -0.049356501549482346 0.05384799838066101
v 0.012024099938571453 -0.049356501549482346 0.05384799838066101
v 0.012181499972939491 -0.050002600997686386 0.015747999772429466
v 0.018119899556040764 -0.04816969856619835 0.015747999772429466
v 0.012024099938571453 -0.049356501549482346 0.05384799838066101
v 0.018119899556040764 -0.04816969856619835 0.015747999772429466
v 0.01788569986820221 -0.04754729941487312 0.05384799838066101
v 0.01788569986820221 -0.04754729941487312 0.05384799838066101
v 0.018119899556040764 -0.04816969856619835 0.015747999772429466
v 0.02379399910569191 -0.045634400099515915 0.015747999772429466
v 0.01788569986820221 -0.04754729941487312 0.05384799838066101
v 0.02379399910569191 -0.045634400099515915 0.015747999772429466
v 0.02348650060594082 -0.04504470154643059 0.05384799838066101
v 0.02348650060594082 -0.04504470154643059 0.05384799838066101
v 0.02379399910569191 -0.045634400099515915 0.015747999772429466
v 0.029121100902557373 -0.04243360087275505 0.015747999772429466
v 0.02348650060594082 -0.04504470154643059 0.05384799838066101
v 0.029121100902557373 -0.04243360087275505 0.015747999772429466
v 0.02874480001628399 -0.04188530147075653 0.05384799838066101
v 0.02874480001628399 -0.04188530147075653 0.05384799838066101
v 0.029121100902557373 -0.04243360087275505 0.015747999772429466
v 0.034023601561784744 -0.03861410170793533 0.015747999772429466
v 0.02874480001628399 -0.04188530147075653 0.05384799838066101
v 0.034023601561784744 -0.03861410170793533 0.015747999772429466
v 0.033583901822566986 -0.03811509907245636 0.05384799838066101
v 0.033583901822566986 -0.03811509907245636 0.05384799838066101
v 0.034023601561784744 -0.03861410170793533 0.015747999772429466
v 0.038429901003837585 -0.03423139825463295 0.015747999772429466
v 0.033583901822566986 -0.03811509907245636 0.05384799838066101
v 0.038429901003837585 -0.03423139825463295 0.015747999772429466
v 0.03793330118060112 -0.033789098262786865 0.05384799838066101
v 0.03793330118060112 -0.033789098262786865 0.05384799838066101
v 0.038429901003837585 -0.03423139825463295 0.015747999772429466
v 0.04227589815855026 -0.02934960089623928 0.015747999772429466
v 0.03793330118060112 -0.033789098262786865 0.05384799838066101
v 0.04227589815855026 -0.02934960089623928 0.015747999772429466
v 0.04172959923744202 -0.028970399871468544 0.05384799838066101
v 0.04172959923744202 -0.028970399871468544 0.05384799838066101
v 0.04227589815855026 -0.02934960089623928 0.015747999772429466
v 0.04550530016422272 -0.024039899930357933 0.015747999772429466
v 0.04172959923744202 -0.028970399871468544 0.05384799838066101
v 0.04550530016422272 -0.024039899930357933 0.015747999772429466
v 0.04491730034351349 -0.023729199543595314 0.05384799838066101
v 0.04491730034351349 -0.023729199543595314 0.05384799838066101
v 0.04550530016422272 -0.024039899930357933 0.015747999772429466
v 0.04807119816541672 -0.01837950013577938 0.015747999772429466
v 0.04491730034351349 -0.023729199543595314 0.05384799838066101
v 0.04807119816541672 -0.01837950013577938 0.015747999772429466
v 0.047450099140405655 -0.01814199984073639 0.05384799838066101
v 0.047450099140405655 -0.01814199984073639 0.05384799838066101
v 0.04807119816541672 -0.01837950013577938 0.015747999772429466
v 0.04993610084056854 -0.012451199814677238 0.015747999772429466
v 0.047450099140405655 -0.01814199984073639 0.05384799838066101
v 0.04993610084056854 -0.012451199814677238 0.015747999772429466
v 0.04929089918732643 -0.012290299870073795 0.05384799838066101
v 0.04929089918732643 -0.012290299870073795 0.05384799838066101
v 0.04993610084056854 -0.012451199814677238 0.015747999772429466
v 0.051072899252176285 -0.006341250147670507 0.015747999772429466
v 0.04929089918732643 -0.012290299870073795 0.05384799838066101
v 0.051072899252176285 -0.006341250147670507 0.015747999772429466
v 0.05041290074586868 -0.00625929981470108 0.05384799838066101
v 0.05041290074586868 -0.00625929981470108 0.05384799838066101
v 0.051072899252176285 -0.006341250147670507 0.015747999772429466
v 0.05146490037441254 -0.00013885600492358208 0.015747999772429466
v 0.05041290074586868 -0.00625929981470108 0.05384799838066101
v 0.05146490037441254 -0.00013885600492358208 0.015747999772429466
v 0.05079979822039604 -0.00013706200115848333 0.05384799838066101
f 1 2 3
f 4 5 6
f 7 8 9
f 10 11 12
f 13 14 15
f 16 17 18
f 19 20 21
f 22 23 24
f 25 26 27
f 28 29 30
f 31 32 33
f 34 35 36
f 37 38 39
f 40 41 42
f 43 44 45
f 46 47 48
f 49 50 51
f 52 53 54
f 55 56 57
f 58 59 60
f 61 62 63
f 64 65 66
f 67 68 69
f 70 71 72
f 73 74 75
f 76 77 78
f 79 80 81
f 82 83 84
f 85 86 87
f 88 89 90
f 91 92 93
f 94 95 96
f 97 98 99
f 100 101 102
f 103 104 105
f 106 107 108
f 109 110 111
f 112 113 114
f 115 116 117
f 118 119 120
f 121 122 123
f 124 125 126
f 127 128 129
f 130 131 132
f 133 134 135
f 136 137 138
f 139 140 141
f 142 143 144
f 145 146 147
f 148 149 150
f 151 152 153
f 154 155 156
f 157 158 159
f 160 161 162
f 163 164 165
f 166 167 168
f 169 170 171
f 172 173 174
f 175 176 177
f 178 179 180
f 181 182 183
f 184 185 186
f 187 188 189
f 190 191 192
f 193 194 195
f 196 197 198
f 199 200 201
f 202 203 204
f 205 206 207
f 208 209 210
f 211 212 213
f 214 215 216
f 217 218 219
f 220 221 222
f 223 224 225
f 226 227 228
f 229 230 231
f 232 233 234
f 235 236 237
f 238 239 240
f 241 242 243
f 244 245 246
f 247 248 249
f 250 251 252
f 253 254 255
f 256 257 258
f 259 260 261
f 262 263 264
f 265 266 267
f 268 269 270
f 271 272 273
f 274 275 276
f 277 278 279
f 280 281 282
f 283 284 285
f 286 287 288
f 289 290 291
f 292 293 294
f 295 296 297
f 298 299 300
f 301 302 303
f 304 305 306
f 307 308 309
f 310 311 312
