v -1.2392344928002785e-08 0.010913832113146782 8.881784197001252e-16
v -1.2392344928002785e-08 0.010913832113146782 0.049531396478414536
v 0.009663031436502934 0.010913833975791931 0.0485796257853508
v -1.2392344928002785e-08 0.010913832113146782 8.881784197001252e-16
v 0.009663031436502934 0.010913833975791931 0.0485796257853508
v 0.018954798579216003 0.010913839563727379 0.04576103761792183
v -1.2392344928002785e-08 0.010913832113146782 8.881784197001252e-16
v 0.018954798579216003 0.010913839563727379 0.04576103761792183
v 0.0275181382894516 0.010913841426372528 0.04118381440639496
v -1.2392344928002785e-08 0.010913832113146782 8.881784197001252e-16
v 0.0275181382894516 0.010913841426372528 0.04118381440639496
v 0.035023968666791916 0.010913844220340252 0.03502397611737251
v -1.2392344928002785e-08 0.010913832113146782 8.881784197001252e-16
v 0.035023968666791916 0.010913844220340252 0.03502397611737251
v 0.04118380695581436 0.010913845151662827 0.027518147602677345
v -1.2392344928002785e-08 0.010913832113146782 8.881784197001252e-16
v 0.04118380695581436 0.010913845151662827 0.027518147602677345
v 0.04576103016734123 0.010913847014307976 0.01895480789244175
v -1.2392344928002785e-08 0.010913832113146782 8.881784197001252e-16
v 0.04576103016734123 0.010913847014307976 0.01895480789244175
v 0.0485796220600605 0.01091384794563055 0.009663043543696404
v -1.2392344928002785e-08 0.010913832113146782 8.881784197001252e-16
v 0.0485796220600605 0.01091384794563055 0.009663043543696404
v 0.04953138902783394 0.01091384794563055 8.881784197001252e-16
v -1.2392344928002785e-08 0.010913832113146782 8.881784197001252e-16
v 0.04953138902783394 0.01091384794563055 8.881784197001252e-16
v 0.0485796220600605 0.01091384794563055 -0.009663043543696404
v -1.2392344928002785e-08 0.010913832113146782 8.881784197001252e-16
v 0.0485796220600605 0.01091384794563055 -0.009663043543696404
v 0.04576103016734123 0.010913847014307976 -0.01895480789244175
v -1.2392344928002785e-08 0.010913832113146782 8.881784197001252e-16
v 0.04576103016734123 0.010913847014307976 -0.01895480789244175
v 0.04118380695581436 0.010913845151662827 -0.027518147602677345
v -1.2392344928002785e-08 0.010913832113146782 8.881784197001252e-16
v 0.04118380695581436 0.010913845151662827 -0.027518147602677345
v 0.035023968666791916 0.010913844220340252 -0.03502397611737251
v -1.2392344928002785e-08 0.010913832113146782 8.881784197001252e-16
v 0.035023968666791916 0.010913844220340252 -0.03502397611737251
v 0.0275181382894516 0.010913841426372528 -0.04118381440639496
v -1.2392344928002785e-08 0.010913832113146782 8.881784197001252e-16
v 0.0275181382894516 0.010913841426372528 -0.04118381440639496
v 0.018954798579216003 0.010913839563727379 -0.04576103761792183
v -1.2392344928002785e-08 0.010913832113146782 8.881784197001252e-16
v 0.018954798579216003 0.010913839563727379 -0.04576103761792183
v 0.009663031436502934 0.010913833975791931 -0.0485796257853508
v -1.2392344928002785e-08 0.010913832113146782 8.881784197001252e-16
v 0.009663031436502934 0.010913833975791931 -0.0485796257853508
v -1.2392344928002785e-08 0.010913832113146782 -0.049531396478414536
v -1.2392344928002785e-08 0.010913832113146782 8.881784197001252e-16
v -1.2392344928002785e-08 0.010913832113146782 -0.049531396478414536
v -0.009663117118179798 0.010913829319179058 -0.0485796257853508
v -1.2392344928002785e-08 0.010913832113146782 8.881784197001252e-16
v -0.009663117118179798 0.010913829319179058 -0.0485796257853508
v -0.018954820930957794 0.01091382559388876 -0.045760974287986755
v -1.2392344928002785e-08 0.010913832113146782 8.881784197001252e-16
v -0.018954820930957794 0.01091382559388876 -0.045760974287986755
v -0.02751815877854824 0.010913822799921036 -0.04118381440639496
v -1.2392344928002785e-08 0.010913832113146782 8.881784197001252e-16
v -0.02751815877854824 0.010913822799921036 -0.04118381440639496
v -0.03502399101853371 0.010913820005953312 -0.03502391651272774
v -1.2392344928002785e-08 0.010913832113146782 8.881784197001252e-16
v -0.03502399101853371 0.010913820005953312 -0.03502391651272774
v -0.041183825582265854 0.010913819074630737 -0.027518147602677345
v -1.2392344928002785e-08 0.010913832113146782 8.881784197001252e-16
v -0.041183825582265854 0.010913819074630737 -0.027518147602677345
v -0.04576105251908302 0.010913817211985588 -0.01895480789244175
v -1.2392344928002785e-08 0.010913832113146782 8.881784197001252e-16
v -0.04576105251908302 0.010913817211985588 -0.01895480789244175
v -0.048579636961221695 0.010913816280663013 -0.009663043543696404
v -1.2392344928002785e-08 0.010913832113146782 8.881784197001252e-16
v -0.048579636961221695 0.010913816280663013 -0.009663043543696404
v -0.04953141137957573 0.010913816280663013 8.881784197001252e-16
v -1.2392344928002785e-08 0.010913832113146782 8.881784197001252e-16
v -0.04953141137957573 0.010913816280663013 8.881784197001252e-16
v -0.048579636961221695 0.010913816280663013 0.009663104079663754
v -1.2392344928002785e-08 0.010913832113146782 8.881784197001252e-16
v -0.048579636961221695 0.010913816280663013 0.009663104079663754
v -0.04576098546385765 0.010913817211985588 0.018954867497086525
v -1.2392344928002785e-08 0.010913832113146782 8.881784197001252e-16
v -0.04576098546385765 0.010913817211985588 0.018954867497086525
v -0.04118376597762108 0.010913819074630737 0.02751820720732212
v -1.2392344928002785e-08 0.010913832113146782 8.881784197001252e-16
v -0.04118376597762108 0.010913819074630737 0.02751820720732212
v -0.03502393141388893 0.010913820005953312 0.03502397611737251
v -1.2392344928002785e-08 0.010913832113146782 8.881784197001252e-16
v -0.03502393141388893 0.010913820005953312 0.03502397611737251
v -0.027518099173903465 0.010913822799921036 0.04118387773633003
v -1.2392344928002785e-08 0.010913832113146782 8.881784197001252e-16
v -0.027518099173903465 0.010913822799921036 0.04118387773633003
v -0.01895476132631302 0.01091382559388876 0.04576103761792183
v -1.2392344928002785e-08 0.010913832113146782 8.881784197001252e-16
v -0.01895476132631302 0.01091382559388876 0.04576103761792183
v -0.009662997908890247 0.010913829319179058 0.0485796257853508
v -1.2392344928002785e-08 0.010913832113146782 8.881784197001252e-16
v -0.009662997908890247 0.010913829319179058 0.0485796257853508
v -1.2392344928002785e-08 0.010913832113146782 0.049531396478414536
v -5.302779548799208e-09 -0.010913847014307976 8.881784197001252e-16
v 0.00966303888708353 -0.010913844220340252 0.0485796257853508
v -5.302779548799208e-09 -0.010913847014307976 0.049531396478414536
v -5.302779548799208e-09 -0.010913847014307976 8.881784197001252e-16
v 0.0189548060297966 -0.010913840495049953 0.04576103761792183
v 0.00966303888708353 -0.010913844220340252 0.0485796257853508
v -5.302779548799208e-09 -0.010913847014307976 8.881784197001252e-16
v 0.027518143877387047 -0.01091383770108223 0.04118381440639496
v 0.0189548060297966 -0.010913840495049953 0.04576103761792183
v -5.302779548799208e-09 -0.010913847014307976 8.881784197001252e-16
v 0.03502397611737251 -0.010913834907114506 0.03502397611737251
v 0.027518143877387047 -0.01091383770108223 0.04118381440639496
v -5.302779548799208e-09 -0.010913847014307976 8.881784197001252e-16
v 0.04118381068110466 -0.010913833975791931 0.027518147602677345
v 0.03502397611737251 -0.010913834907114506 0.03502397611737251
v -5.302779548799208e-09 -0.010913847014307976 8.881784197001252e-16
v 0.04576103761792183 -0.010913832113146782 0.01895480789244175
v 0.04118381068110466 -0.010913833975791931 0.027518147602677345
v -5.302779548799208e-09 -0.010913847014307976 8.881784197001252e-16
v 0.0485796220600605 -0.010913831181824207 0.009663043543696404
v 0.04576103761792183 -0.010913832113146782 0.01895480789244175
v -5.302779548799208e-09 -0.010913847014307976 8.881784197001252e-16
v 0.049531396478414536 -0.010913831181824207 8.881784197001252e-16
v 0.0485796220600605 -0.010913831181824207 0.009663043543696404
v -5.302779548799208e-09 -0.010913847014307976 8.881784197001252e-16
v 0.0485796220600605 -0.010913831181824207 -0.009663043543696404
v 0.049531396478414536 -0.010913831181824207 8.881784197001252e-16
v -5.302779548799208e-09 -0.010913847014307976 8.881784197001252e-16
v 0.04576103761792183 -0.010913832113146782 -0.01895480789244175
v 0.0485796220600605 -0.010913831181824207 -0.009663043543696404
v -5.302779548799208e-09 -0.010913847014307976 8.881784197001252e-16
v 0.04118381068110466 -0.010913833975791931 -0.027518147602677345
v 0.04576103761792183 -0.010913832113146782 -0.01895480789244175
v -5.302779548799208e-09 -0.010913847014307976 8.881784197001252e-16
v 0.03502397611737251 -0.010913834907114506 -0.03502397611737251
v 0.04118381068110466 -0.010913833975791931 -0.027518147602677345
v -5.302779548799208e-09 -0.010913847014307976 8.881784197001252e-16
v 0.027518143877387047 -0.01091383770108223 -0.04118381440639496
v 0.03502397611737251 -0.010913834907114506 -0.03502397611737251
v -5.302779548799208e-09 -0.010913847014307976 8.881784197001252e-16
v 0.0189548060297966 -0.010913840495049953 -0.04576103761792183
v 0.027518143877387047 -0.01091383770108223 -0.04118381440639496
v -5.302779548799208e-09 -0.010913847014307976 8.881784197001252e-16
v 0.00966303888708353 -0.010913844220340252 -0.0485796257853508
v 0.0189548060297966 -0.010913840495049953 -0.04576103761792183
v -5.302779548799208e-09 -0.010913847014307976 8.881784197001252e-16
v -5.302779548799208e-09 -0.010913847014307976 -0.049531396478414536
v 0.00966303888708353 -0.010913844220340252 -0.0485796257853508
v -5.302779548799208e-09 -0.010913847014307976 8.881784197001252e-16
v -0.009663110598921776 -0.0109138498082757 -0.0485796257853508
v -5.302779548799208e-09 -0.010913847014307976 -0.049531396478414536
v -5.302779548799208e-09 -0.010913847014307976 8.881784197001252e-16
v -0.018954813480377197 -0.010913854464888573 -0.045760974287986755
v -0.009663110598921776 -0.0109138498082757 -0.0485796257853508
v -5.302779548799208e-09 -0.010913847014307976 8.881784197001252e-16
v -0.027518153190612793 -0.010913856327533722 -0.04118381440639496
v -0.018954813480377197 -0.010913854464888573 -0.045760974287986755
v -5.302779548799208e-09 -0.010913847014307976 8.881784197001252e-16
v -0.03502398356795311 -0.010913859121501446 -0.03502391651272774
v -0.027518153190612793 -0.010913856327533722 -0.04118381440639496
v -5.302779548799208e-09 -0.010913847014307976 8.881784197001252e-16
v -0.041183821856975555 -0.01091386005282402 -0.027518147602677345
v -0.03502398356795311 -0.010913859121501446 -0.03502391651272774
v -5.302779548799208e-09 -0.010913847014307976 8.881784197001252e-16
v -0.045761045068502426 -0.01091386191546917 -0.01895480789244175
v -0.041183821856975555 -0.01091386005282402 -0.027518147602677345
v -5.302779548799208e-09 -0.010913847014307976 8.881784197001252e-16
v -0.048579636961221695 -0.010913862846791744 -0.009663043543696404
v -0.045761045068502426 -0.01091386191546917 -0.01895480789244175
v -5.302779548799208e-09 -0.010913847014307976 8.881784197001252e-16
v -0.04953140392899513 -0.010913862846791744 8.881784197001252e-16
v -0.048579636961221695 -0.010913862846791744 -0.009663043543696404
v -5.302779548799208e-09 -0.010913847014307976 8.881784197001252e-16
v -0.048579636961221695 -0.010913862846791744 0.009663104079663754
v -0.04953140392899513 -0.010913862846791744 8.881784197001252e-16
v -5.302779548799208e-09 -0.010913847014307976 8.881784197001252e-16
v -0.04576098546385765 -0.01091386191546917 0.018954867497086525
v -0.048579636961221695 -0.010913862846791744 0.009663104079663754
v -5.302779548799208e-09 -0.010913847014307976 8.881784197001252e-16
v -0.04118376225233078 -0.01091386005282402 0.02751820720732212
v -0.04576098546385765 -0.01091386191546917 0.018954867497086525
v -5.302779548799208e-09 -0.010913847014307976 8.881784197001252e-16
v -0.035023923963308334 -0.010913859121501446 0.03502397611737251
v -0.04118376225233078 -0.01091386005282402 0.02751820720732212
v -5.302779548799208e-09 -0.010913847014307976 8.881784197001252e-16
v -0.027518093585968018 -0.010913856327533722 0.04118387773633003
v -0.035023923963308334 -0.010913859121501446 0.03502397611737251
v -5.302779548799208e-09 -0.010913847014307976 8.881784197001252e-16
v -0.018954753875732422 -0.010913854464888573 0.04576103761792183
v -0.027518093585968018 -0.010913856327533722 0.04118387773633003
v -5.302779548799208e-09 -0.010913847014307976 8.881784197001252e-16
v -0.00966299045830965 -0.010913848876953125 0.0485796257853508
v -0.018954753875732422 -0.010913854464888573 0.04576103761792183
v -5.302779548799208e-09 -0.010913847014307976 8.881784197001252e-16
v -5.302779548799208e-09 -0.010913847014307976 0.049531396478414536
v -0.00966299045830965 -0.010913848876953125 0.0485796257853508
v -0.035023923963308334 -0.010913859121501446 0.03502397611737251
v -0.027518099173903465 0.010913822799921036 0.04118387773633003
v -0.03502393141388893 0.010913820005953312 0.03502397611737251
v 0.04953138902783394 0.01091384794563055 8.881784197001252e-16
v 0.0485796220600605 -0.010913831181824207 -0.009663043543696404
v 0.0485796220600605 0.01091384794563055 -0.009663043543696404
v 0.009663031436502934 0.010913833975791931 -0.0485796257853508
v -5.302779548799208e-09 -0.010913847014307976 -0.049531396478414536
v -1.2392344928002785e-08 0.010913832113146782 -0.049531396478414536
v -0.045761045068502426 -0.01091386191546917 -0.01895480789244175
v -0.048579636961221695 0.010913816280663013 -0.009663043543696404
v -0.04576105251908302 0.010913817211985588 -0.01895480789244175
v 0.0189548060297966 -0.010913840495049953 0.04576103761792183
v 0.0275181382894516 0.010913841426372528 0.04118381440639496
v 0.018954798579216003 0.010913839563727379 0.04576103761792183
v -0.027518093585968018 -0.010913856327533722 0.04118387773633003
v -0.01895476132631302 0.01091382559388876 0.04576103761792183
v -0.027518099173903465 0.010913822799921036 0.04118387773633003
v 0.0485796220600605 -0.010913831181824207 -0.009663043543696404
v 0.04576103016734123 0.010913847014307976 -0.01895480789244175
v 0.0485796220600605 0.01091384794563055 -0.009663043543696404
v -5.302779548799208e-09 -0.010913847014307976 -0.049531396478414536
v -0.009663117118179798 0.010913829319179058 -0.0485796257853508
v -1.2392344928002785e-08 0.010913832113146782 -0.049531396478414536
v -0.048579636961221695 -0.010913862846791744 -0.009663043543696404
v -0.04953141137957573 0.010913816280663013 8.881784197001252e-16
v -0.048579636961221695 0.010913816280663013 -0.009663043543696404
v 0.027518143877387047 -0.01091383770108223 0.04118381440639496
v 0.035023968666791916 0.010913844220340252 0.03502397611737251
v 0.0275181382894516 0.010913841426372528 0.04118381440639496
v -0.018954753875732422 -0.010913854464888573 0.04576103761792183
v -0.009662997908890247 0.010913829319179058 0.0485796257853508
v -0.01895476132631302 0.01091382559388876 0.04576103761792183
v 0.04576103016734123 0.010913847014307976 -0.01895480789244175
v 0.04118381068110466 -0.010913833975791931 -0.027518147602677345
v 0.04118380695581436 0.010913845151662827 -0.027518147602677345
v -0.009663110598921776 -0.0109138498082757 -0.0485796257853508
v -0.018954820930957794 0.01091382559388876 -0.045760974287986755
v -0.009663117118179798 0.010913829319179058 -0.0485796257853508
v -0.04953140392899513 -0.010913862846791744 8.881784197001252e-16
v -0.048579636961221695 0.010913816280663013 0.009663104079663754
v -0.04953141137957573 0.010913816280663013 8.881784197001252e-16
v 0.03502397611737251 -0.010913834907114506 0.03502397611737251
v 0.04118380695581436 0.010913845151662827 0.027518147602677345
v 0.035023968666791916 0.010913844220340252 0.03502397611737251
v -0.00966299045830965 -0.010913848876953125 0.0485796257853508
v -1.2392344928002785e-08 0.010913832113146782 0.049531396478414536
v -0.009662997908890247 0.010913829319179058 0.0485796257853508
v 0.04118381068110466 -0.010913833975791931 -0.027518147602677345
v 0.035023968666791916 0.010913844220340252 -0.03502397611737251
v 0.04118380695581436 0.010913845151662827 -0.027518147602677345
v -0.018954813480377197 -0.010913854464888573 -0.045760974287986755
v -0.02751815877854824 0.010913822799921036 -0.04118381440639496
v -0.018954820930957794 0.01091382559388876 -0.045760974287986755
v -0.048579636961221695 -0.010913862846791744 0.009663104079663754
v -0.04576098546385765 0.010913817211985588 0.018954867497086525
v -0.048579636961221695 0.010913816280663013 0.009663104079663754
v 0.04118380695581436 0.010913845151662827 0.027518147602677345
v 0.04576103761792183 -0.010913832113146782 0.01895480789244175
v 0.04576103016734123 0.010913847014307976 0.01895480789244175
v 0.03502397611737251 -0.010913834907114506 -0.03502397611737251
v 0.0275181382894516 0.010913841426372528 -0.04118381440639496
v 0.035023968666791916 0.010913844220340252 -0.03502397611737251
v -0.027518153190612793 -0.010913856327533722 -0.04118381440639496
v -0.03502399101853371 0.010913820005953312 -0.03502391651272774
v -0.02751815877854824 0.010913822799921036 -0.04118381440639496
v -0.04576098546385765 -0.01091386191546917 0.018954867497086525
v -0.04118376597762108 0.010913819074630737 0.02751820720732212
v -0.04576098546385765 0.010913817211985588 0.018954867497086525
v 0.04576103761792183 -0.010913832113146782 0.01895480789244175
v 0.0485796220600605 0.01091384794563055 0.009663043543696404
v 0.04576103016734123 0.010913847014307976 0.01895480789244175
v -1.2392344928002785e-08 0.010913832113146782 0.049531396478414536
v 0.00966303888708353 -0.010913844220340252 0.0485796257853508
v 0.009663031436502934 0.010913833975791931 0.0485796257853508
v 0.027518143877387047 -0.01091383770108223 -0.04118381440639496
v 0.018954798579216003 0.010913839563727379 -0.04576103761792183
v 0.0275181382894516 0.010913841426372528 -0.04118381440639496
v -0.03502399101853371 0.010913820005953312 -0.03502391651272774
v -0.041183821856975555 -0.01091386005282402 -0.027518147602677345
v -0.041183825582265854 0.010913819074630737 -0.027518147602677345
v -0.04118376597762108 0.010913819074630737 0.02751820720732212
v -0.035023923963308334 -0.010913859121501446 0.03502397611737251
v -0.03502393141388893 0.010913820005953312 0.03502397611737251
v 0.0485796220600605 -0.010913831181824207 0.009663043543696404
v 0.04953138902783394 0.01091384794563055 8.881784197001252e-16
v 0.0485796220600605 0.01091384794563055 0.009663043543696404
v 0.0189548060297966 -0.010913840495049953 -0.04576103761792183
v 0.009663031436502934 0.010913833975791931 -0.0485796257853508
v 0.018954798579216003 0.010913839563727379 -0.04576103761792183
v -0.041183821856975555 -0.01091386005282402 -0.027518147602677345
v -0.04576105251908302 0.010913817211985588 -0.01895480789244175
v -0.041183825582265854 0.010913819074630737 -0.027518147602677345
v 0.00966303888708353 -0.010913844220340252 0.0485796257853508
v 0.018954798579216003 0.010913839563727379 0.04576103761792183
v 0.009663031436502934 0.010913833975791931 0.0485796257853508
v -0.035023923963308334 -0.010913859121501446 0.03502397611737251
v -0.027518093585968018 -0.010913856327533722 0.04118387773633003
v -0.027518099173903465 0.010913822799921036 0.04118387773633003
v 0.04953138902783394 0.01091384794563055 8.881784197001252e-16
v 0.049531396478414536 -0.010913831181824207 8.881784197001252e-16
v 0.0485796220600605 -0.010913831181824207 -0.009663043543696404
v 0.009663031436502934 0.010913833975791931 -0.0485796257853508
v 0.00966303888708353 -0.010913844220340252 -0.0485796257853508
v -5.302779548799208e-09 -0.010913847014307976 -0.049531396478414536
v -0.045761045068502426 -0.01091386191546917 -0.01895480789244175
v -0.048579636961221695 -0.010913862846791744 -0.009663043543696404
v -0.048579636961221695 0.010913816280663013 -0.009663043543696404
v 0.0189548060297966 -0.010913840495049953 0.04576103761792183
v 0.027518143877387047 -0.01091383770108223 0.04118381440639496
v 0.0275181382894516 0.010913841426372528 0.04118381440639496
v -0.027518093585968018 -0.010913856327533722 0.04118387773633003
v -0.018954753875732422 -0.010913854464888573 0.04576103761792183
v -0.01895476132631302 0.01091382559388876 0.04576103761792183
v 0.0485796220600605 -0.010913831181824207 -0.009663043543696404
v 0.04576103761792183 -0.010913832113146782 -0.01895480789244175
v 0.04576103016734123 0.010913847014307976 -0.01895480789244175
v -5.302779548799208e-09 -0.010913847014307976 -0.049531396478414536
v -0.009663110598921776 -0.0109138498082757 -0.0485796257853508
v -0.009663117118179798 0.010913829319179058 -0.0485796257853508
v -0.048579636961221695 -0.010913862846791744 -0.009663043543696404
v -0.04953140392899513 -0.010913862846791744 8.881784197001252e-16
v -0.04953141137957573 0.010913816280663013 8.881784197001252e-16
v 0.027518143877387047 -0.01091383770108223 0.04118381440639496
v 0.03502397611737251 -0.010913834907114506 0.03502397611737251
v 0.035023968666791916 0.010913844220340252 0.03502397611737251
v -0.018954753875732422 -0.010913854464888573 0.04576103761792183
v -0.00966299045830965 -0.010913848876953125 0.0485796257853508
v -0.009662997908890247 0.010913829319179058 0.0485796257853508
v 0.04576103016734123 0.010913847014307976 -0.01895480789244175
v 0.04576103761792183 -0.010913832113146782 -0.01895480789244175
v 0.04118381068110466 -0.010913833975791931 -0.027518147602677345
v -0.009663110598921776 -0.0109138498082757 -0.0485796257853508
v -0.018954813480377197 -0.010913854464888573 -0.045760974287986755
v -0.018954820930957794 0.01091382559388876 -0.045760974287986755
v -0.04953140392899513 -0.010913862846791744 8.881784197001252e-16
v -0.048579636961221695 -0.010913862846791744 0.009663104079663754
v -0.048579636961221695 0.010913816280663013 0.009663104079663754
v 0.03502397611737251 -0.010913834907114506 0.03502397611737251
v 0.04118381068110466 -0.010913833975791931 0.027518147602677345
v 0.04118380695581436 0.010913845151662827 0.027518147602677345
v -0.00966299045830965 -0.010913848876953125 0.0485796257853508
v -5.302779548799208e-09 -0.010913847014307976 0.049531396478414536
v -1.2392344928002785e-08 0.010913832113146782 0.049531396478414536
v 0.04118381068110466 -0.010913833975791931 -0.027518147602677345
v 0.03502397611737251 -0.010913834907114506 -0.03502397611737251
v 0.035023968666791916 0.010913844220340252 -0.03502397611737251
v -0.018954813480377197 -0.010913854464888573 -0.045760974287986755
v -0.027518153190612793 -0.010913856327533722 -0.04118381440639496
v -0.02751815877854824 0.010913822799921036 -0.04118381440639496
v -0.048579636961221695 -0.010913862846791744 0.009663104079663754
v -0.04576098546385765 -0.01091386191546917 0.018954867497086525
v -0.04576098546385765 0.010913817211985588 0.018954867497086525
v 0.04118380695581436 0.010913845151662827 0.027518147602677345
v 0.04118381068110466 -0.010913833975791931 0.027518147602677345
v 0.04576103761792183 -0.010913832113146782 0.01895480789244175
v 0.03502397611737251 -0.010913834907114506 -0.03502397611737251
v 0.027518143877387047 -0.01091383770108223 -0.04118381440639496
v 0.0275181382894516 0.010913841426372528 -0.04118381440639496
v -0.027518153190612793 -0.010913856327533722 -0.04118381440639496
v -0.03502398356795311 -0.010913859121501446 -0.03502391651272774
v -0.03502399101853371 0.010913820005953312 -0.03502391651272774
v -0.04576098546385765 -0.01091386191546917 0.018954867497086525
v -0.04118376225233078 -0.01091386005282402 0.02751820720732212
v -0.04118376597762108 0.010913819074630737 0.02751820720732212
v 0.04576103761792183 -0.010913832113146782 0.01895480789244175
v 0.0485796220600605 -0.010913831181824207 0.009663043543696404
v 0.0485796220600605 0.01091384794563055 0.009663043543696404
v -1.2392344928002785e-08 0.010913832113146782 0.049531396478414536
v -5.302779548799208e-09 -0.010913847014307976 0.049531396478414536
v 0.00966303888708353 -0.010913844220340252 0.0485796257853508
v 0.027518143877387047 -0.01091383770108223 -0.04118381440639496
v 0.0189548060297966 -0.010913840495049953 -0.04576103761792183
v 0.018954798579216003 0.010913839563727379 -0.04576103761792183
v -0.03502399101853371 0.010913820005953312 -0.03502391651272774
v -0.03502398356795311 -0.010913859121501446 -0.03502391651272774
v -0.041183821856975555 -0.01091386005282402 -0.027518147602677345
v -0.04118376597762108 0.010913819074630737 0.02751820720732212
v -0.04118376225233078 -0.01091386005282402 0.02751820720732212
v -0.035023923963308334 -0.010913859121501446 0.03502397611737251
v 0.0485796220600605 -0.010913831181824207 0.009663043543696404
v 0.049531396478414536 -0.010913831181824207 8.881784197001252e-16
v 0.04953138902783394 0.01091384794563055 8.881784197001252e-16
v 0.0189548060297966 -0.010913840495049953 -0.04576103761792183
v 0.00966303888708353 -0.010913844220340252 -0.0485796257853508
v 0.009663031436502934 0.010913833975791931 -0.0485796257853508
v -0.041183821856975555 -0.01091386005282402 -0.027518147602677345
v -0.045761045068502426 -0.01091386191546917 -0.01895480789244175
v -0.04576105251908302 0.010913817211985588 -0.01895480789244175
v 0.00966303888708353 -0.010913844220340252 0.0485796257853508
v 0.0189548060297966 -0.010913840495049953 0.04576103761792183
v 0.018954798579216003 0.010913839563727379 0.04576103761792183
f 1 2 3
f 4 5 6
f 7 8 9
f 10 11 12
f 13 14 15
f 16 17 18
f 19 20 21
f 22 23 24
f 25 26 27
f 28 29 30
f 31 32 33
f 34 35 36
f 37 38 39
f 40 41 42
f 43 44 45
f 46 47 48
f 49 50 51
f 52 53 54
f 55 56 57
f 58 59 60
f 61 62 63
f 64 65 66
f 67 68 69
f 70 71 72
f 73 74 75
f 76 77 78
f 79 80 81
f 82 83 84
f 85 86 87
f 88 89 90
f 91 92 93
f 94 95 96
f 97 98 99
f 100 101 102
f 103 104 105
f 106 107 108
f 109 110 111
f 112 113 114
f 115 116 117
f 118 119 120
f 121 122 123
f 124 125 126
f 127 128 129
f 130 131 132
f 133 134 135
f 136 137 138
f 139 140 141
f 142 143 144
f 145 146 147
f 148 149 150
f 151 152 153
f 154 155 156
f 157 158 159
f 160 161 162
f 163 164 165
f 166 167 168
f 169 170 171
f 172 173 174
f 175 176 177
f 178 179 180
f 181 182 183
f 184 185 186
f 187 188 189
f 190 191 192
f 193 194 195
f 196 197 198
f 199 200 201
f 202 203 204
f 205 206 207
f 208 209 210
f 211 212 213
f 214 215 216
f 217 218 219
f 220 221 222
f 223 224 225
f 226 227 228
f 229 230 231
f 232 233 234
f 235 236 237
f 238 239 240
f 241 242 243
f 244 245 246
f 247 248 249
f 250 251 252
f 253 254 255
f 256 257 258
f 259 260 261
f 262 263 264
f 265 266 267
f 268 269 270
f 271 272 273
f 274 275 276
f 277 278 279
f 280 281 282
f 283 284 285
f 286 287 288
f 289 290 291
f 292 293 294
f 295 296 297
f 298 299 300
f 301 302 303
f 304 305 306
f 307 308 309
f 310 311 312
f 313 314 315
f 316 317 318
f 319 320 321
f 322 323 324
f 325 326 327
f 328 329 330
f 331 332 333
f 334 335 336
f 337 338 339
f 340 341 342
f 343 344 345
f 346 347 348
f 349 350 351
f 352 353 354
f 355 356 357
f 358 359 360
f 361 362 363
f 364 365 366
f 367 368 369
f 370 371 372
f 373 374 375
f 376 377 378
f 379 380 381
f 382 383 384
